<svg width="673" height="154" xmlns="http://www.w3.org/2000/svg" xmlns:xlink="http://www.w3.org/1999/xlink" overflow="hidden"><defs><clipPath id="clip0"><path d="M243 539 916 539 916 693 243 693Z" fill-rule="evenodd" clip-rule="evenodd"/></clipPath></defs><g clip-path="url(#clip0)" transform="translate(-243 -539)"><path d="M383.221 662.327 381.479 665.044 381.09 667.586 380.604 669.345 387.697 674.819 398.151 682.243 397.704 681.661 399.453 680.879 404.7 681.661 407.712 681.075 407.615 679.902 404.894 676.97 393.915 666.804 388.818 662.458 387.32 662.662C386.102 662.743 384.912 662.715 383.811 662.503ZM453.717 539 454.591 539 454.3 541.493 452.114 547.504 450.948 553.515 449.491 558.5 448.531 560.552 448.713 560.846C451.369 565.929 452.276 572.185 453.377 576.486 454.478 580.787 454.284 582.286 455.32 586.652 456.357 591.018 458.947 597.469 459.595 602.682 460.243 607.895 460.113 613.239 459.207 617.93 458.3 622.622 456.292 627.054 454.154 630.833 452.017 634.613 449.814 637.219 446.381 640.608 442.948 643.996 438.673 648.232 433.556 651.164 428.439 654.097 420.602 656.638 415.679 658.202 410.756 659.766 407.064 660.092 404.02 660.548 401.737 660.89 401.056 660.756 399.438 660.805L397.867 660.909 395.178 663.871 411.015 677.458 413.639 680 415.776 681.564 418.205 682.346 420.44 683.225 423.355 683.225 428.213 681.857 429.087 683.225 429.379 684.301 430.544 684.301 433.265 684.203 434.139 685.083 433.848 687.624 431.419 687.624 423.452 686.549 420.051 688.113 413.25 686.451 411.404 684.789 409.364 685.571 407.323 684.789 406.352 685.18 402.271 684.887 402.013 684.792 404.02 685.865 408.198 688.797 411.21 689.09 416.262 690.263 422.674 691.436 421.509 693 404.797 692.707 387.114 691.632 386.531 689.481 387.891 687.526 391.875 689.09 399.356 688.504 392.652 683.323 385.851 677.849 377.204 672.278 372.832 668.857 372.832 668.759C372.391 668.537 372.688 668.713 372.054 668.075 371.982 668.002 371.989 667.879 371.957 667.781L371.666 666.902C371.618 666.794 371.524 666.713 371.471 666.608 371.372 666.408 371.314 666.012 371.277 665.826 371.237 665.624 371.108 665.444 371.083 665.24 371.01 664.657 371.018 664.067 370.986 663.48L371.374 662.112 374.43 657.36 374.119 657.161C373.066 656.561 372.022 656.084 370.985 655.856 366.84 654.944 358.938 657.029 358.938 657.029 353.238 657.485 344.493 657.746 336.785 658.593 329.077 659.44 317.742 661.395 312.69 662.112 307.637 662.829 306.277 663.676 306.471 662.894 306.666 662.112 310.358 659.44 313.856 657.42 317.353 655.4 325.579 651.946 327.458 650.773 329.336 649.6 334.389 647.515 325.126 650.382 315.864 653.25 284.772 663.415 271.883 667.977 258.993 672.538 252.191 676.188 247.787 677.752 243.382 679.315 243.123 678.924 245.455 677.361 247.787 675.797 259.835 669.932 261.778 668.368 263.721 666.804 257.049 668.694 257.114 667.977 257.179 667.26 253.293 668.303 262.167 664.458 271.04 660.613 298.31 649.926 310.358 644.909 322.406 639.891 328.948 637.415 334.453 634.352 339.959 631.289 336.915 630.442 343.392 626.532 349.869 622.622 365.545 615.519 373.317 610.893 381.09 606.266 385.171 602.161 390.029 598.772 394.887 595.384 399.356 595.188 402.465 590.561 405.574 585.935 406.805 575.834 408.683 571.012 410.562 566.19 411.404 564.756 413.736 561.628 416.068 558.5 419.306 554.982 422.674 552.245 426.043 549.508 431.484 546.25 433.945 545.207 436.099 544.295 435.277 543.582 436.687 545.164L437.07 545.582 442.641 543.105 446.867 540.906 450.219 539.88Z" fill="#E7E6E6" fill-rule="evenodd"/><text fill="#E7E6E6" font-family="Eras ITC,Eras ITC_MSFontService,sans-serif" font-weight="300" font-size="59" transform="translate(487.665 636)">DUMI<tspan font-weight="600" x="144.167" y="0">STUDIOS</tspan></text></g></svg>