<svg width="673" height="154" xmlns="http://www.w3.org/2000/svg" xmlns:xlink="http://www.w3.org/1999/xlink" overflow="hidden"><defs><clipPath id="clip0"><path d="M201 283 874 283 874 437 201 437Z" fill-rule="evenodd" clip-rule="evenodd"/></clipPath></defs><g clip-path="url(#clip0)" transform="translate(-201 -283)"><path d="M341.221 406.327 339.479 409.044 339.09 411.586 338.604 413.345 345.697 418.819 356.151 426.243 355.704 425.661 357.453 424.879 362.7 425.661 365.712 425.075 365.615 423.902 362.894 420.97 351.915 410.804 346.818 406.458 345.32 406.662C344.102 406.743 342.912 406.715 341.811 406.503ZM411.717 283 412.591 283 412.3 285.493 410.114 291.504 408.948 297.515 407.491 302.5 406.531 304.552 406.713 304.846C409.369 309.929 410.276 316.185 411.377 320.486 412.478 324.787 412.284 326.285 413.32 330.652 414.357 335.018 416.947 341.469 417.595 346.682 418.243 351.895 418.113 357.239 417.207 361.93 416.3 366.622 414.292 371.053 412.154 374.833 410.017 378.613 407.814 381.219 404.381 384.608 400.948 387.996 396.673 392.232 391.556 395.164 386.439 398.097 378.602 400.638 373.679 402.202 368.756 403.766 365.064 404.092 362.02 404.548 359.737 404.89 359.056 404.756 357.438 404.805L355.867 404.909 353.178 407.871 369.015 421.458 371.639 424 373.776 425.564 376.205 426.346 378.44 427.225 381.355 427.225 386.213 425.857 387.087 427.225 387.379 428.301 388.544 428.301 391.265 428.203 392.139 429.083 391.848 431.624 389.419 431.624 381.452 430.549 378.051 432.113 371.25 430.451 369.404 428.789 367.364 429.571 365.323 428.789 364.352 429.18 360.271 428.887 360.013 428.792 362.02 429.865 366.198 432.797 369.21 433.09 374.262 434.263 380.674 435.436 379.509 437 362.797 436.707 345.114 435.632 344.531 433.481 345.891 431.526 349.875 433.09 357.356 432.504 350.652 427.323 343.851 421.849 335.204 416.278 330.832 412.857 330.832 412.759C330.391 412.537 330.688 412.713 330.054 412.075 329.982 412.002 329.989 411.879 329.957 411.781L329.666 410.902C329.618 410.794 329.524 410.713 329.471 410.608 329.372 410.408 329.314 410.012 329.277 409.826 329.237 409.624 329.108 409.444 329.083 409.24 329.01 408.657 329.018 408.067 328.986 407.48L329.374 406.112 332.43 401.36 332.119 401.161C331.066 400.561 330.022 400.084 328.985 399.856 324.84 398.944 316.938 401.029 316.938 401.029 311.238 401.485 302.493 401.746 294.785 402.593 287.077 403.44 275.742 405.395 270.69 406.112 265.637 406.829 264.277 407.676 264.471 406.894 264.666 406.112 268.358 403.44 271.856 401.42 275.353 399.4 283.579 395.946 285.458 394.773 287.336 393.6 292.389 391.515 283.126 394.382 273.864 397.25 242.772 407.415 229.883 411.977 216.993 416.538 210.191 420.188 205.787 421.752 201.382 423.315 201.123 422.924 203.455 421.361 205.787 419.797 217.835 413.932 219.778 412.368 221.721 410.804 215.049 412.694 215.114 411.977 215.179 411.26 211.293 412.303 220.167 408.458 229.04 404.613 256.31 393.926 268.358 388.909 280.406 383.891 286.948 381.415 292.453 378.352 297.959 375.289 294.915 374.442 301.392 370.532 307.869 366.622 323.545 359.519 331.317 354.893 339.09 350.266 343.171 346.161 348.029 342.772 352.887 339.384 357.356 339.188 360.465 334.561 363.574 329.935 364.805 319.834 366.683 315.012 368.562 310.19 369.404 308.756 371.736 305.628 374.068 302.5 377.306 298.982 380.674 296.245 384.043 293.508 389.484 290.25 391.945 289.207 394.099 288.295 393.277 287.582 394.687 289.164L395.07 289.582 400.641 287.105 404.867 284.906 408.219 283.88Z" fill="#0D0D0D" fill-rule="evenodd"/><text font-family="Eras ITC,Eras ITC_MSFontService,sans-serif" font-weight="300" font-size="59" transform="translate(445.665 380)">DUMI<tspan font-weight="600" x="144.167" y="0">STUDIOS</tspan></text></g></svg>