<svg width="218" height="155" xmlns="http://www.w3.org/2000/svg" xmlns:xlink="http://www.w3.org/1999/xlink" overflow="hidden"><defs><clipPath id="clip0"><path d="M269 63 487 63 487 218 269 218Z" fill-rule="evenodd" clip-rule="evenodd"/></clipPath></defs><g clip-path="url(#clip0)" transform="translate(-269 -63)"><path d="M409.221 186.526 407.479 189.226 407.09 191.751 406.604 193.499 413.697 198.937 424.151 206.313 423.704 205.735 425.453 204.958 430.7 205.735 433.712 205.152 433.615 203.987 430.894 201.074 419.915 190.974 414.818 186.656 413.32 186.859C412.102 186.94 410.912 186.911 409.811 186.701ZM479.717 64 480.591 64 480.3 66.4763 478.114 72.4487 476.948 78.4211 475.491 83.3738 474.531 85.4118 474.713 85.7045C477.369 90.7543 478.276 96.9695 479.377 101.242 480.478 105.515 480.284 107.004 481.32 111.342 482.357 115.68 484.947 122.089 485.595 127.268 486.243 132.448 486.113 137.757 485.207 142.418 484.3 147.079 482.292 151.482 480.154 155.237 478.017 158.992 475.814 161.581 472.381 164.948 468.948 168.315 464.673 172.523 459.556 175.436 454.439 178.349 446.602 180.874 441.679 182.428 436.756 183.982 433.064 184.306 430.02 184.759 427.737 185.099 427.056 184.965 425.438 185.014L423.867 185.117 421.178 188.061 437.015 201.559 439.639 204.084 441.776 205.638 444.205 206.415 446.44 207.289 449.355 207.289 454.213 205.929 455.087 207.289 455.379 208.357 456.544 208.357 459.265 208.26 460.139 209.134 459.848 211.659 457.419 211.659 449.452 210.591 446.051 212.144 439.25 210.493 437.404 208.843 435.364 209.619 433.323 208.843 432.352 209.231 428.271 208.94 428.013 208.845 430.02 209.911 434.198 212.824 437.21 213.116 442.262 214.281 448.674 215.446 447.509 217 430.797 216.709 413.114 215.64 412.531 213.504 413.891 211.562 417.875 213.116 425.356 212.533 418.652 207.386 411.851 201.948 403.204 196.412 398.832 193.013 398.832 192.916C398.391 192.696 398.688 192.87 398.054 192.236 397.982 192.164 397.989 192.042 397.957 191.945L397.666 191.071C397.618 190.964 397.524 190.884 397.471 190.78 397.372 190.581 397.314 190.188 397.277 190.003 397.237 189.802 397.108 189.623 397.083 189.42 397.01 188.841 397.018 188.255 396.986 187.672L397.374 186.313 400.43 181.592 400.119 181.393C399.066 180.797 398.022 180.324 396.985 180.097 392.84 179.191 384.938 181.263 384.938 181.263 379.238 181.716 370.493 181.975 362.785 182.817 355.077 183.658 343.742 185.6 338.69 186.313 333.637 187.025 332.277 187.866 332.471 187.089 332.666 186.313 336.358 183.658 339.856 181.651 343.353 179.644 351.579 176.213 353.458 175.048 355.336 173.882 360.389 171.811 351.126 174.659 341.864 177.508 310.772 187.607 297.883 192.139 284.993 196.671 278.191 200.297 273.787 201.851 269.382 203.404 269.123 203.016 271.455 201.462 273.787 199.908 285.835 194.082 287.778 192.528 289.721 190.974 283.049 192.851 283.114 192.139 283.179 191.427 279.293 192.463 288.167 188.643 297.04 184.824 324.31 174.206 336.358 169.221 348.406 164.236 354.948 161.776 360.453 158.733 365.959 155.69 362.915 154.848 369.392 150.964 375.869 147.079 391.545 140.023 399.317 135.426 407.09 130.829 411.171 126.751 416.029 123.384 420.887 120.017 425.356 119.823 428.465 115.227 431.574 110.63 432.805 100.595 434.683 95.8042 436.562 91.0133 437.404 89.589 439.736 86.4814 442.068 83.3738 445.306 79.8778 448.674 77.1587 452.043 74.4395 457.484 71.2025 459.945 70.1666 462.099 69.2602 461.277 68.5521 462.687 70.1241L463.07 70.5391 468.641 68.0787 472.867 65.8937 476.219 64.874Z" fill="#0D0D0D" fill-rule="evenodd"/></g></svg>